<?xml version="1.0" encoding="UTF-8" standalone="no"?>
<svg xmlns="http://www.w3.org/2000/svg" xmlns:xlink="http://www.w3.org/1999/xlink" width="48" height="48" viewBox="0 0 48 48">
  <circle cx="24" cy="24" r="22" fill="#25D366" />
  <path fill="#FFFFFF" d="M34.7,13.3c-2.8-2.8-6.5-4.3-10.4-4.3c-8.1,0-14.7,6.6-14.7,14.7c0,2.6,0.7,5.1,2,7.3L9,41l10.2-2.7c2.1,1.2,4.5,1.8,7,1.8h0c8.1,0,14.7-6.6,14.7-14.7C40.9,19.8,37.5,16.1,34.7,13.3z M24.3,36.9h0c-2.2,0-4.4-0.6-6.2-1.7l-0.4-0.3l-4.7,1.2l1.2-4.5l-0.3-0.5c-1.2-1.9-1.8-4.1-1.8-6.3c0-6.7,5.5-12.2,12.2-12.2c3.3,0,6.3,1.3,8.6,3.6c2.3,2.3,3.6,5.3,3.6,8.6C36.5,31.4,31,36.9,24.3,36.9z M31.2,27.4c-0.4-0.2-2.2-1.1-2.5-1.2c-0.3-0.1-0.6-0.2-0.8,0.2c-0.2,0.4-0.9,1.2-1.1,1.5c-0.2,0.2-0.4,0.3-0.8,0.1c-0.4-0.2-1.6-0.6-3-1.9c-1.1-1-1.9-2.2-2.1-2.6c-0.2-0.4,0-0.6,0.2-0.8c0.2-0.2,0.4-0.4,0.6-0.7c0.2-0.2,0.3-0.4,0.4-0.6c0.1-0.2,0.1-0.5,0-0.7c-0.1-0.2-0.8-2-1.1-2.7c-0.3-0.7-0.6-0.6-0.8-0.6c-0.2,0-0.5,0-0.7,0c-0.2,0-0.6,0.1-0.9,0.4c-0.3,0.3-1.2,1.2-1.2,2.9c0,1.7,1.3,3.4,1.4,3.6c0.2,0.2,2.2,3.5,5.4,4.8c0.8,0.3,1.4,0.5,1.8,0.7c0.8,0.2,1.5,0.2,2,0.1c0.6-0.1,2.2-0.9,2.5-1.8c0.3-0.9,0.3-1.6,0.2-1.8C31.8,27.7,31.6,27.6,31.2,27.4z"/>
</svg>
